<svg data-name="Layer 1" xmlns="http://www.w3.org/2000/svg" width="1139.171" height="654.543" viewBox="0 0 1139.171 654.543"><circle cx="246.827" cy="521.765" r="59.243" fill="#f2f2f2"/><circle cx="256.46" cy="513.095" r="59.243" fill="#62baf9"/><path fill="#3f3d56" d="M304.171 447.543h733v2h-733zM683.793 18.652h-260.17V13.29h-117.97v5.362H44.41a17.599 17.599 0 00-17.598 17.599v356.252A17.599 17.599 0 0044.41 410.1h639.383a17.599 17.599 0 0017.598-17.598V36.25a17.599 17.599 0 00-17.598-17.599z"/><path fill="#62baf9" d="M50.406 49.754h627.391v353.913H50.406z"/><circle cx="363.565" cy="33.667" r="6.435" fill="#62baf9"/><path opacity=".1" d="M498.374 403.667H50.406V49.754l447.968 353.913z"/><circle cx="148.574" cy="316.876" r="60.307" fill="#f2f2f2"/><path fill="#3f3d56" d="M509.953 240.622h58.605v12.246h-58.605zm-70.851-95.343h200.307v5.248H439.102zm0 16.619h200.307v5.248H439.102zm0 16.62h200.307v5.248H439.102zm0 16.619h200.307v5.248H439.102zm0 16.619h200.307v5.248H439.102z"/><path fill="#f2f2f2" d="M614.917 56.934h24.492v24.492h-24.492z"/><path d="M650.78 92.797h-29.74v-29.74h29.74zm-28.447-1.293h27.154V64.35h-27.154zm96.674 305.728h-61.23v-4.412a.875.875 0 00-.874-.874H635.91a.875.875 0 00-.875.874v4.412h-13.12v-4.412a.875.875 0 00-.875-.874h-20.993a.875.875 0 00-.874.874v4.412h-13.121v-4.412a.875.875 0 00-.875-.874h-20.993a.875.875 0 00-.874.874v4.412h-13.12v-4.412a.875.875 0 00-.876-.874h-20.992a.875.875 0 00-.875.874v4.412h-13.12v-4.412a.875.875 0 00-.875-.874h-20.993a.875.875 0 00-.875.874v4.412h-13.12v-4.412a.875.875 0 00-.875-.874h-20.993a.875.875 0 00-.875.874v4.412h-13.12v-4.412a.875.875 0 00-.875-.874H277.28a.875.875 0 00-.874.874v4.412h-13.121v-4.412a.875.875 0 00-.875-.874h-20.993a.875.875 0 00-.874.874v4.412h-13.12v-4.412a.875.875 0 00-.876-.874h-20.992a.875.875 0 00-.875.874v4.412h-13.12v-4.412a.875.875 0 00-.875-.874h-20.993a.875.875 0 00-.875.874v4.412h-13.12v-4.412a.875.875 0 00-.875-.874H133.83a.875.875 0 00-.875.874v4.412h-13.12v-4.412a.875.875 0 00-.875-.874H97.967a.875.875 0 00-.875.874v4.412h-13.12v-4.412a.875.875 0 00-.875-.874H62.104a.875.875 0 00-.875.874v4.412H20.993A20.993 20.993 0 000 418.225v9.492a20.993 20.993 0 0020.993 20.993h698.014A20.993 20.993 0 00740 427.717v-9.492a20.993 20.993 0 00-20.993-20.993zm-555.836-42.689a76 76 0 1176-76 76.086 76.086 0 01-76 76zm0-150a74 74 0 1074 74 74.084 74.084 0 00-74-74zm423-172h255v2h-255zm-180 528h733v2h-733zm-213.499 92h255v2h-255z" fill="#3f3d56"/><path fill="#62baf9" d="M471 550h28v28h-28z"/><path d="M516 562h-34v-34h34zm-32.522-1.478h31.044v-31.044h-31.044z" fill="#3f3d56"/><path fill="#62baf9" d="M796 22h28v28h-28z"/><path d="M841 34h-34V0h34zm-32.522-1.478h31.044V1.478h-31.044z" fill="#3f3d56"/><path fill="#62baf9" d="M1078 550h28v28h-28z"/><path d="M1123 562h-34v-34h34zm-32.522-1.478h31.044v-31.044h-31.044zm-33.307-328.564h-2.378v-65.161a37.714 37.714 0 00-37.714-37.714H879.025a37.714 37.714 0 00-37.713 37.714v357.481a37.714 37.714 0 0037.713 37.714h138.054a37.714 37.714 0 0037.714-37.714V278.341h2.378z" fill="#3f3d56"/><path d="M1046.761 169.013v356.96a28.165 28.165 0 01-28.16 28.17h-138.72a28.165 28.165 0 01-28.16-28.17v-356.96a28.163 28.163 0 0128.16-28.16h16.83a13.38 13.38 0 0012.39 18.43h79.09a13.38 13.38 0 0012.39-18.43h18.02a28.163 28.163 0 0128.16 28.16z" fill="#62baf9"/><path fill="#3f3d56" d="M928.58 376.218h41.324v12.246H928.58zm-49.959-95.343h141.24v5.248h-141.24zm0 16.619h141.24v5.248h-141.24zm0 16.62h141.24v5.248h-141.24zm0 16.619h141.24v5.248h-141.24zm0 16.619h141.24v5.248h-141.24z"/><path fill="#f2f2f2" d="M929.684 211.179h24.492v24.492h-24.492z"/><path d="M939.06 217.303v29.74h29.74v-29.74zm28.45 28.45h-27.16v-27.16h27.16z" fill="#3f3d56"/><path d="M1046.761 487.853v38.12a28.165 28.165 0 01-28.16 28.17h-138.72a28.165 28.165 0 01-28.16-28.17v-192.21l116.87 92.33 2 1.58 21.74 17.17 2.03 1.61z" opacity=".1"/><circle cx="937.241" cy="498.707" r="43.868" fill="#f2f2f2"/><path d="M320.171 654.543a87 87 0 1187-87 87.099 87.099 0 01-87 87zm0-172a85 85 0 1085 85 85.096 85.096 0 00-85-85zm630 50a55 55 0 1155-55 55.062 55.062 0 01-55 55zm0-108a53 53 0 1053 53 53.06 53.06 0 00-53-53z" fill="#3f3d56"/></svg>