<svg data-name="Layer 1" xmlns="http://www.w3.org/2000/svg" width="802.027" height="590.916" viewBox="0 0 802.027 590.916"><path fill="#e6e6e6" d="M464.906 218.808h337.121v9.889H464.906z"/><path fill="#e6e6e6" d="M492.774 136.101h85.404v85.404h-85.404z"/><path fill="#ccc" d="M509.855 153.182h51.242v51.242h-51.242z"/><path fill="#e6e6e6" d="M684.259 136.101h21.576v85.404h-21.576z"/><path fill="#ccc" d="M684.259 149.586h21.576v9.889h-21.576zm0 43.151h21.576v9.889h-21.576z"/><path fill="#e6e6e6" d="M650.997 136.101h21.576v85.404h-21.576z"/><path fill="#ccc" d="M650.997 149.586h21.576v9.889h-21.576zm0 43.151h21.576v9.889h-21.576z"/><path fill="#e6e6e6" d="M705.09 145.321l19.335-9.573 37.893 76.537-19.336 9.573z"/><path fill="#ccc" d="M711.072 157.405l19.336-9.573 4.388 8.862-19.336 9.573zm19.147 38.672l19.336-9.573 4.387 8.862-19.336 9.573z"/><path fill="#e6e6e6" d="M524.688 170.382l10.866 18.819 10.865 18.819h-43.461l10.865-18.819 10.865-18.819z"/><path fill="#e6e6e6" d="M543.567 173.978l10.865 18.819 10.866 18.819h-43.461l10.865-18.819 10.865-18.819z"/><circle cx="551.209" cy="162.171" r="6.293" fill="#e6e6e6"/><path fill="#e6e6e6" d="M802.027 92.95H464.906v-9.89h337.121z"/><path fill="#e6e6e6" d="M774.158 85.757h-85.404V.353h85.404z"/><path fill="#ccc" d="M757.078 68.676h-51.242V17.434h51.242z"/><path fill="#e6e6e6" d="M582.673 85.757h-21.576V.353h21.576z"/><path fill="#ccc" d="M582.673 23.727h-21.576v-9.89h21.576zm0 43.152h-21.576v-9.89h21.576z"/><path fill="#e6e6e6" d="M615.936 85.757H594.36V.353h21.576z"/><path fill="#ccc" d="M615.936 23.727H594.36v-9.89h21.576zm0 43.152H594.36v-9.89h21.576z"/><path fill="#e6e6e6" d="M523.95 86.11l-19.335-9.572L542.508 0l19.335 9.573z"/><path fill="#ccc" d="M551.473 30.52l-19.336-9.573 4.387-8.862 19.336 9.573zm-19.147 38.672l-19.336-9.573 4.388-8.862 19.336 9.573z"/><path fill="#e6e6e6" d="M742.244 34.634l-10.865 18.819-10.865 18.819h43.461l-10.866-18.819-10.865-18.819z"/><path fill="#e6e6e6" d="M723.365 38.23L712.5 57.049l-10.865 18.819h43.461l-10.865-18.819-10.866-18.819z"/><circle cx="715.724" cy="26.424" r="6.293" fill="#e6e6e6"/><path fill="#e6e6e6" d="M802.027 364.445H464.906v-9.89h337.121z"/><path fill="#e6e6e6" d="M774.158 357.253h-85.404v-85.404h85.404z"/><path fill="#ccc" d="M757.078 340.172h-51.242V288.93h51.242z"/><path fill="#e6e6e6" d="M582.673 357.253h-21.576v-85.404h21.576z"/><path fill="#ccc" d="M582.673 295.222h-21.576v-9.889h21.576zm0 43.151h-21.576v-9.889h21.576z"/><path fill="#e6e6e6" d="M615.936 357.253H594.36v-85.404h21.576z"/><path fill="#ccc" d="M615.936 295.222H594.36v-9.889h21.576zm0 43.151H594.36v-9.889h21.576z"/><path fill="#e6e6e6" d="M523.95 357.606l-19.336-9.573 37.893-76.538 19.336 9.574z"/><path fill="#ccc" d="M551.472 302.015l-19.336-9.573 4.388-8.862 19.336 9.573zm-19.145 38.671l-19.336-9.573 4.387-8.862 19.336 9.573z"/><path fill="#e6e6e6" d="M742.244 306.129l-10.865 18.819-10.865 18.82h43.461l-10.866-18.82-10.865-18.819z"/><path fill="#e6e6e6" d="M723.365 309.725L712.5 328.544l-10.865 18.82h43.461l-10.865-18.82-10.866-18.819z"/><circle cx="715.724" cy="297.919" r="6.293" fill="#e6e6e6"/><ellipse cx="397.129" cy="562.711" rx="397.129" ry="28.205" fill="#e6e6e6"/><path d="M707.387 578.506c-64.755-11.525-135.568-9.61-209.847 0 33.855-28.581 63.075-57.163 29.22-85.744 66.038 13.624 75.288 12.245 148.751 0-17.039 28.581 14.836 57.163 31.876 85.744z" fill="#62baf9"/><path d="M707.387 578.506c-64.755-11.525-135.568-9.61-209.847 0 33.855-28.581 63.075-57.163 29.22-85.744 66.038 13.624 75.288 12.245 148.751 0-17.039 28.581 14.836 57.163 31.876 85.744z" opacity=".2"/><path d="M691.592 566.312c-55.007-9.2-115.16-7.67-178.257 0 28.759-22.814 53.58-45.628 24.82-68.442 56.098 10.875 63.956 9.774 126.36 0-14.474 22.814 12.603 45.628 27.077 68.442z" fill="#62baf9"/><circle cx="670.64" cy="500.244" r="29.309" fill="#2f2e41"/><path fill="#a0616a" d="M537.591 466.249l20.308 3.385 10.154 29.333-29.333 18.052-33.847-50.77h32.718z"/><circle cx="595.13" cy="463.993" r="47.385" fill="#a0616a"/><path d="M333.386 291.377S218.308 303.787 198 301.53s-29.334-4.513-29.334-4.513-13.538 18.051-6.769 25.949a48.822 48.822 0 0013.538 11.282s12.41-3.385 21.436 0 100.411 18.051 116.206 4.513 20.308-47.385 20.308-47.385z" fill="#2f2e41"/><path d="M341.283 542.967s-75.59-21.436-89.128-116.205v-9.026s-14.957 26.239-20.308 31.59c-6.205 6.205-28.205 62.052-27.077 67.693s0 7.897 0 7.897l-32.718-3.384v-10.154s17.487-52.462 18.615-64.872 43.436-98.719 43.436-98.719 15.795-32.718 42.872 0 29.334 55.283 29.334 55.283l34.974 67.692zM172.052 293.633l-36.103-12.41s-33.846-24.82-25.949 0 44 78.975 54.154 73.334 22.366-19.644 19.645-21.668-20.773-16.691-11.747-39.256z" fill="#2f2e41"/><path d="M176.416 504.717l-29.144 14.233s-35.244 5.422-15.589 15.588 73.876 21.011 76.588 11.522 1.635-25.236-1.216-24.817-22.506 2.451-30.64-16.526z" fill="#2f2e41"/><path d="M326.616 468.506s-14.666 63.18 10.154 76.718 198.565 15.795 212.103-9.026 6.77-24.82 6.77-24.82l-36.103-40.616 29.333-2.256s0-9.026-10.153-10.154-41.744-12.41-68.821-4.513-42.872-15.795-42.872-15.795z" fill="#575a89"/><path fill="#3f3d56" d="M307.437 271.069l-19.18 104.924 132.001-15.795 23.692-94.77-136.513 5.641z"/><path fill="#fff" d="M311.386 275.018l-15.795 93.641 120.154-14.102 23.128-85.18-127.487 5.641z"/><path fill="#b3b3b3" d="M292.77 377.121l-4.513-1.128-2.256 4.512 36.103 100.411 3.395-1.298 1.117-6.599-33.846-95.898z"/><path fill="#d0cde1" d="M288.257 374.864l36.103 104.924 136.513-20.308-40.615-99.282-132.001 14.666z"/><path fill="#3f3d56" d="M306.309 371.48v5.641l100.41-11.282-1.128-5.641-99.282 11.282zm2.256 11.282l15.795 44 102.667-12.41-18.051-41.744-100.411 10.154z"/><path d="M437.18 444.813l-3.384-9.025s-25.949-45.129-39.487-36.103 28.205 53.026 28.205 53.026h13.539zm-85.743 6.77l-3.385-13.539s-9.025-41.744 6.77-39.487 20.307 41.743 20.307 41.743l-1.128 9.026z" fill="#a0616a"/><path d="M378.514 445.942s-29.333-4.513-30.462 2.256-6.769 108.308 21.436 111.693 168.103 18.05 153.437-16.924-37.231-30.461-37.231-30.461l-95.898 10.154zm88.564 12.974l-29.897-20.872-19.744 15.231 24.821 27.077 24.82-21.436z" fill="#575a89"/><path opacity=".2" d="M386.976 479.224l4.512 42.872 77.847-4.513-67.693-1.128-14.666-37.231z"/><circle cx="618.521" cy="472.603" r="56.41" fill="#2f2e41"/><path fill="#62baf9" d="M328.309 307.736l69.949-2.435 6.769-25.77-72.205 2.179-4.513 26.026z"/><path fill="#e6e6e6" d="M310.258 322.403l106.051-3.385 1.128-4.513-106.051 3.734-1.128 4.164zm-2.257 11.282l106.052-3.385 1.128-4.513-106.052 3.734-1.128 4.164zm-1.128 9.025l106.051-3.384 1.129-4.513-106.052 3.733-1.128 4.164z"/></svg>